<svg width="29" height="24" viewBox="0 0 29 24" fill="none" xmlns="http://www.w3.org/2000/svg">
<path fill-rule="evenodd" clip-rule="evenodd" d="M4.35029 18.0173H5.02978V13.5618L6.09096 17.4464C6.21116 17.9133 6.38384 18.0863 6.7182 18.0863C7.05256 18.0863 7.21493 17.9131 7.33911 17.4464L8.39502 13.5618V18.0173H9.07978V13.5618C9.07978 13.1294 8.97516 12.9213 8.75562 12.8089C8.23815 12.5494 7.89313 12.7743 7.73638 13.3537L6.69629 17.1951L5.69264 13.3537C5.54104 12.7743 5.19075 12.5494 4.66813 12.8089C4.45374 12.9213 4.34924 13.1292 4.34924 13.5618L4.34912 18.0173H4.35029ZM9.6454 14.3923H10.3302V16.8408C10.325 16.9791 10.3563 17.2907 10.7285 17.299C10.9218 17.3077 12.2025 17.299 12.2128 17.299V14.3749H12.8976V18.3806C12.8976 19.3669 12.1595 19.5829 11.8155 19.5918H9.66227V18.8394H11.8211C12.2601 18.7615 12.2079 18.3983 12.2079 18.2771V17.9827H10.7599C10.0855 17.974 9.65161 17.4809 9.64657 16.9186V14.3919L9.6454 14.3923ZM24.3334 11.5545C23.9154 11.537 23.5911 11.6064 23.3193 11.7968C23.2411 11.8492 23.1155 11.8492 23.1052 12.0132C23.147 12.0821 23.152 12.1947 23.1887 12.2902C23.2514 12.4633 23.3613 12.6966 23.4605 12.8176C23.5704 12.9562 23.6801 13.0945 23.795 13.2157C23.9988 13.4232 24.2288 13.5444 24.4274 13.752C24.5424 13.8732 24.6573 14.0289 24.7724 14.1589C24.8309 14.2281 24.8664 14.3407 24.9397 14.3838V14.3576C24.9031 14.28 24.8926 14.1676 24.8561 14.0807C24.8038 13.9944 24.7515 13.9163 24.6991 13.83C24.5477 13.4926 24.3594 13.1982 24.1556 12.9562C23.9883 12.7658 23.6225 12.5064 23.5546 12.1864L23.5443 12.169C23.6591 12.1515 23.795 12.0823 23.9048 12.0303C24.0827 11.9527 24.2446 11.9698 24.4274 11.8921C24.5111 11.8572 24.5946 11.8141 24.6784 11.7709V11.6933C24.5843 11.5376 24.5164 11.3299 24.4172 11.1829C24.1506 10.8023 23.8578 10.4302 23.5546 10.1188C23.3925 9.94579 23.1834 9.83313 23.011 9.68634C22.9481 9.63437 22.8437 9.60839 22.8071 9.5219C22.7128 9.33187 22.6607 9.08076 22.5927 8.85563C22.4413 8.37978 22.2948 7.85215 22.1642 7.35031C22.0701 7.01291 22.0125 6.67551 21.8977 6.36409C21.3592 4.89329 20.7737 4.00228 19.8747 3.12833C19.6813 2.94664 19.4514 2.86849 19.2069 2.77348L18.8149 2.73857C18.7311 2.67807 18.6476 2.51364 18.5744 2.43569C18.2764 2.12427 17.508 1.44946 17.2884 2.34067C17.1472 2.90301 17.4975 3.45662 17.6164 3.74225C17.7054 3.9412 17.8202 4.16613 17.8832 4.39107C17.9183 4.53805 17.93 4.69395 17.9667 4.84966C18.0502 5.2303 18.1287 5.65438 18.2385 6.00924C18.2971 6.19093 18.3586 6.38154 18.4318 6.54579C18.4736 6.6408 18.5468 6.68424 18.5624 6.83995C18.4892 7.01311 18.4842 7.27236 18.4423 7.48896C18.2541 8.46665 18.3273 9.67781 18.5938 10.3957C18.6776 10.6119 18.875 11.0879 19.1428 10.906C19.378 10.7503 19.3256 10.2572 19.3935 9.8246C19.4093 9.72085 19.3988 9.65163 19.4301 9.58221V9.59966L19.6444 10.3177C19.8065 10.7416 20.0888 11.1829 20.3239 11.4773C20.4493 11.633 20.5486 11.9014 20.7054 11.9964V11.9702H20.6951C20.6637 11.8926 20.6166 11.8577 20.5748 11.7972C20.4807 11.6415 20.3762 11.4511 20.303 11.2781C20.0835 10.7938 19.8902 10.2572 19.7177 9.7036C19.6339 9.43542 19.5607 9.14126 19.493 8.87308C19.4613 8.76915 19.4613 8.61325 19.4092 8.56167C19.3307 8.7517 19.2159 8.91652 19.1581 9.14999C19.0588 9.5219 19.0485 9.9805 19.0119 10.4564C18.9908 10.4651 19.0002 10.4564 18.9908 10.4738C18.8238 10.4048 18.7661 10.119 18.7035 9.87695C18.5467 9.26265 18.5205 8.27642 18.6564 7.56691C18.6929 7.38522 18.8499 6.81415 18.7872 6.64119C18.7556 6.47675 18.6513 6.38174 18.5937 6.25182C18.5257 6.08738 18.4528 5.8799 18.4057 5.69821C18.2803 5.21343 18.2176 4.67728 18.0816 4.1927C18.0187 3.96776 17.9091 3.7341 17.8201 3.52662C17.7208 3.29296 17.6112 3.12852 17.5328 2.85181C17.5066 2.7568 17.4701 2.6009 17.5119 2.49696C17.5222 2.42774 17.5433 2.40195 17.5849 2.38449C17.6528 2.28948 17.8464 2.41048 17.9143 2.46206C18.1076 2.59198 18.2696 2.71298 18.4317 2.89448C18.5049 2.98096 18.5834 3.14539 18.6775 3.18883H18.7874C18.9546 3.24933 19.1427 3.20628 19.2993 3.28384C19.5764 3.43122 19.8272 3.64723 20.0521 3.88108C20.7368 4.59913 21.3015 5.62006 21.6829 6.84014C21.7456 7.03909 21.7717 7.22078 21.8294 7.42846C21.9392 7.85254 22.0751 8.28496 22.1847 8.7005C22.2946 9.10713 22.3991 9.52268 22.5558 9.86008C22.6343 10.0418 22.9478 10.1368 23.0889 10.232C23.1935 10.3096 23.3554 10.3794 23.4497 10.4744C23.6273 10.6561 23.805 10.8638 23.9722 11.0627C24.0557 11.1663 24.3172 11.3827 24.3328 11.5552L24.3334 11.5545ZM19.0029 4.03621C18.9307 4.03515 18.8587 4.04969 18.7888 4.07945V4.09691H18.7991C18.8409 4.23536 18.9141 4.33057 18.9664 4.45176L19.0867 4.86711L19.097 4.84966C19.1702 4.76318 19.2069 4.62473 19.2069 4.41724C19.1755 4.35674 19.1703 4.29605 19.1442 4.23555C19.1128 4.14907 19.0449 4.10563 19.0029 4.0366V4.03621Z" fill="#00678C"/>
<path fill-rule="evenodd" clip-rule="evenodd" d="M13.4194 18.0172H15.3848C15.6148 18.0172 15.8344 17.9397 16.012 17.801C16.31 17.5761 16.4511 17.2736 16.4511 16.8755V16.045C16.4511 15.725 16.2891 15.4219 15.9652 15.2145C15.7979 15.1107 15.5888 15.05 15.3849 15.05H14.559C14.2819 15.05 14.1513 14.9114 14.1146 14.6089C14.1095 14.5744 14.1095 14.5396 14.1095 14.5051V13.9946C14.1095 13.9684 14.1095 13.9341 14.1146 13.8996C14.1512 13.6659 14.2244 13.6052 14.4661 13.5622H16.4784V12.8092H14.5653C14.2882 12.8092 14.1419 12.8354 14.0112 12.9046C13.6086 13.1121 13.4309 13.441 13.4309 14.0204V14.6783C13.4309 15.1883 13.7759 15.6213 14.3613 15.725C14.424 15.7337 14.492 15.7337 14.5599 15.7337H15.2657C15.2918 15.7337 15.3178 15.7337 15.3386 15.7425C15.553 15.777 15.6471 15.8375 15.7098 15.967C15.7516 16.0362 15.7622 16.0969 15.7622 16.1749V16.8322C15.7622 16.9098 15.7308 17.0141 15.6681 17.1004C15.6054 17.1867 15.5058 17.2474 15.3752 17.2561C15.3491 17.2561 15.3336 17.2648 15.3072 17.2648H13.4194V18.0172ZM20.7058 16.711C20.7058 17.4809 21.0573 17.9133 21.7567 18.0002C21.8246 18.0089 21.8873 18.0172 21.9552 18.0172H23.7325V17.2648H21.9397C21.5422 17.2648 21.3907 17.1004 21.3907 16.7025V12.8092H20.7045V16.7112L20.7058 16.711ZM16.8848 16.7454V14.0636C16.8848 13.3801 17.1775 12.9645 17.7474 12.835C17.8101 12.8263 17.8728 12.8175 17.9302 12.8175H19.2264C19.2943 12.8175 19.352 12.8263 19.4199 12.835C19.9896 12.9645 20.277 13.3799 20.277 14.0636V16.7454C20.277 17.299 20.1569 17.5933 19.8745 17.7925L20.5434 18.7958H19.7543L19.2107 17.9827L18.6617 18.0347H17.93C17.7959 18.0336 17.6624 18.0046 17.5327 17.9484C17.0992 17.749 16.8848 17.3686 16.8848 16.7454ZM17.6217 16.6853C17.6217 16.7198 17.6334 16.7541 17.6375 16.7977C17.6741 17.1089 17.8517 17.2821 18.1235 17.2821H18.7404L18.176 16.4341H18.9651L19.4616 17.1784C19.5559 17.0917 19.6133 16.9705 19.6342 16.8148C19.6395 16.7803 19.6395 16.7372 19.6395 16.7023V14.1326C19.6395 14.0981 19.6395 14.0638 19.6342 14.0289C19.5976 13.7349 19.42 13.5707 19.1534 13.5707H18.1236C17.8204 13.5707 17.6218 13.7869 17.6218 14.1326L17.6217 16.6853Z" fill="#CE8B2C"/>
</svg>
